<?xml version="1.0" encoding="UTF-8"?>
<svg version="1.1" xmlns="http://www.w3.org/2000/svg" width="199" height="151">
<path d="M0 0 C3.70022745 2.53117008 6.50446386 4.52622704 9.0078125 8.28125 C11.86542158 6.97668934 13.97105201 5.54870037 16.2578125 3.40625 C23.76794747 -3.14514433 32.48494033 -6.16892642 42.4453125 -5.59375 C53.92842165 -4.2267132 62.71502164 1.17043864 70.17578125 9.84375 C77.14023066 19.10988312 77.8956913 29.51231047 76.6171875 40.69921875 C72.8580756 63.5671495 58.07154529 81.10790597 39.81640625 94.6484375 C36.59632562 96.93479494 33.30976006 99.11485026 30.0078125 101.28125 C28.54601562 102.25964844 28.54601562 102.25964844 27.0546875 103.2578125 C24.3952045 105.00356251 21.77483624 106.71046719 19.0078125 108.28125 C18.03497314 108.90870117 18.03497314 108.90870117 17.04248047 109.54882812 C13.63133017 111.47742556 11.35339445 112.64097406 7.45898438 111.59985352 C4.72566448 110.27092817 2.1983743 108.78505674 -0.3671875 107.15625 C-1.25535156 106.6303125 -2.14351562 106.104375 -3.05859375 105.5625 C-6.43074769 103.55247178 -9.72578508 101.45885161 -12.9921875 99.28125 C-12.38473353 94.42161821 -10.26459783 90.5406982 -7.9921875 86.28125 C-3.31526411 86.97708494 0.2957933 89.9790669 4.0546875 92.66210938 C6.99311292 94.60381537 8.48974049 95.37017783 12.01171875 94.765625 C15.32200454 93.12558771 18.47962509 91.3608487 21.5703125 89.34375 C22.17238525 88.9533252 22.77445801 88.56290039 23.39477539 88.16064453 C30.06003048 83.73337735 36.07088053 78.63020521 42.0078125 73.28125 C42.70777344 72.65347656 43.40773438 72.02570313 44.12890625 71.37890625 C53.76394961 62.25887634 61.23017172 49.76035677 62.0078125 36.28125 C62.05808594 35.56453125 62.10835938 34.8478125 62.16015625 34.109375 C62.45374665 27.11017981 60.59179156 22.07039971 56.2578125 16.53125 C52.3809875 12.32347652 48.7916274 10.58842958 43.17578125 9.96875 C36.5936821 9.70381016 31.36053588 10.26048337 26.0078125 14.28125 C20.71264884 19.57641366 18.46304048 25.00511009 17.0078125 32.28125 C12.3878125 32.28125 7.7678125 32.28125 3.0078125 32.28125 C2.7603125 30.940625 2.5128125 29.6 2.2578125 28.21875 C0.79012711 21.81521853 -1.13159717 17.25204022 -6.6796875 13.46875 C-13.35037247 9.73810766 -19.48651425 8.4858176 -26.921875 10.51953125 C-32.9827985 12.74949367 -37.12753494 16.51480041 -39.97265625 22.26171875 C-43.13242977 30.49920692 -42.38445021 40.14336219 -39.19726562 48.32080078 C-37.76183417 51.4748913 -36.15622878 54.46787883 -34.453125 57.48828125 C-32.9921875 60.28125 -32.9921875 60.28125 -32.9921875 63.28125 C-36.9921875 65.28125 -40.9921875 67.28125 -44.9921875 69.28125 C-54.0370188 56.35118189 -58.61587821 40.27208494 -56.3671875 24.53125 C-54.3120559 15.15386142 -48.71734344 6.45584287 -40.9296875 0.77734375 C-27.67438009 -7.15217051 -13.52525704 -7.76907715 0 0 Z " fill="#122EE8" transform="translate(94.9921875,26.71875)"/>
<path d="M0 0 C3.19319107 2.24386399 3.90367244 3.64679896 4.9375 7.4375 C5.00779003 11.44403151 4.53249114 12.94354518 2 16 C-0.65499724 18.08606926 -2.06750504 17.99879455 -5.5 17.9375 C-9 17 -9 17 -11.4375 14.875 C-13.42214753 11.22324854 -13.58639648 9.10477533 -13 5 C-9.44856255 -0.63331458 -6.3934045 -1.69620936 0 0 Z " fill="#132FE3" transform="translate(71,101)"/>
<path d="M0 0 C0 0.33 0 0.66 0 1 C-0.87011719 1.14695313 -0.87011719 1.14695313 -1.7578125 1.296875 C-8.1794196 2.52609352 -12.48206193 4.48206193 -17.1875 9.1875 C-19.58621525 12.90964435 -20.78232834 16.76582355 -22 21 C-22.66 20.67 -23.32 20.34 -24 20 C-24 19.01 -24 18.02 -24 17 C-25.6396875 17.99 -25.6396875 17.99 -27.3125 19 C-29.93707538 20.58464929 -30.8256378 21 -34 21 C-34 26.94 -34 32.88 -34 39 C-38.2386834 30.5226332 -37.78647343 19.95458937 -35 11 C-31.27514231 2.63757116 -31.27514231 2.63757116 -28 1 C-28.350625 2.0725 -28.70125 3.145 -29.0625 4.25 C-29.94863912 7.79455649 -29.96790287 8.73332782 -29 12 C-29.66 12.66 -30.32 13.32 -31 14 C-30.05125 13.79375 -29.1025 13.5875 -28.125 13.375 C-27.09375 13.25125 -26.0625 13.1275 -25 13 C-24.34 13.66 -23.68 14.32 -23 15 C-23 13.35 -23 11.7 -23 10 C-22.01 9.67 -21.02 9.34 -20 9 C-20 8.34 -20 7.68 -20 7 C-20.66 6.67 -21.32 6.34 -22 6 C-15.39691302 0.22229889 -8.37919574 -0.46360304 0 0 Z M-34 14 C-33.67 14.99 -33.34 15.98 -33 17 C-33 16.01 -33 15.02 -33 14 C-33.33 14 -33.66 14 -34 14 Z " fill="#1630DC" transform="translate(75,35)"/>
<path d="M0 0 C2.08961178 4.17922356 1.9377834 6.48158909 1 11 C0.97164062 11.825 0.94328125 12.65 0.9140625 13.5 C0.81511482 16.11830777 0.66445357 18.46340358 0 21 C-2.9375 23 -2.9375 23 -6 24 C-6.66 24.66 -7.32 25.32 -8 26 C-8 24.68 -8 23.36 -8 22 C-8.66 22 -9.32 22 -10 22 C-10.19430855 19.3753399 -10.38073238 16.75053235 -10.5625 14.125 C-10.61857422 13.37863281 -10.67464844 12.63226563 -10.73242188 11.86328125 C-11.11328125 6.2265625 -11.11328125 6.2265625 -10 4 C-8.22265625 2.9296875 -8.22265625 2.9296875 -6.0625 1.875 C-5.35222656 1.52179687 -4.64195313 1.16859375 -3.91015625 0.8046875 C-2 0 -2 0 0 0 Z " fill="#102EF0" transform="translate(51,52)"/>
<path d="M0 0 C1.32 0 2.64 0 4 0 C4.33 0.99 4.66 1.98 5 3 C5.66 3.33 6.32 3.66 7 4 C7 2.68 7 1.36 7 0 C7.66 0.33 8.32 0.66 9 1 C8.67 1.66 8.34 2.32 8 3 C8.66 3 9.32 3 10 3 C10 3.66 10 4.32 10 5 C10.99 5.33 11.98 5.66 13 6 C8.71 7.65 4.42 9.3 0 11 C0 12.32 0 13.64 0 15 C-0.99 15.495 -0.99 15.495 -2 16 C-2 17.65 -2 19.3 -2 21 C-2.99 21 -3.98 21 -5 21 C-5 20.34 -5 19.68 -5 19 C-5.99 19.66 -6.98 20.32 -8 21 C-10.1875 20.625 -10.1875 20.625 -12 20 C-11.34 19.34 -10.68 18.68 -10 18 C-10.20625 17.278125 -10.4125 16.55625 -10.625 15.8125 C-11.08383781 12.37121641 -10.12443181 10.48465908 -8.3203125 7.5703125 C-6.32300435 5.19481583 -3.79483532 4.24214903 -1 3 C-0.67 2.01 -0.34 1.02 0 0 Z M-14 20 C-13.34 20.66 -12.68 21.32 -12 22 C-12.99 22.495 -12.99 22.495 -14 23 C-14 22.01 -14 21.02 -14 20 Z " fill="#0F2EEF" transform="translate(55,29)"/>
<path d="M0 0 C7 8.75 7 8.75 7 14 C3 16 -1 18 -5 20 C-5.83878455 18.71186658 -6.67086783 17.41936744 -7.5 16.125 C-7.9640625 15.40570313 -8.428125 14.68640625 -8.90625 13.9453125 C-10 12 -10 12 -10 10 C-9.34 10 -8.68 10 -8 10 C-8 10.66 -8 11.32 -8 12 C-7.34 12 -6.68 12 -6 12 C-5.67 12.99 -5.34 13.98 -5 15 C-4.34 15.33 -3.68 15.66 -3 16 C-2.67 13.36 -2.34 10.72 -2 8 C-2.99 8 -3.98 8 -5 8 C-3.25 4.125 -3.25 4.125 -1 3 C-0.67 2.01 -0.34 1.02 0 0 Z " fill="#1430DD" transform="translate(55,76)"/>
<path d="M0 0 C-1.32 0.33 -2.64 0.66 -4 1 C-4 1.66 -4 2.32 -4 3 C-5.6396875 3.4021875 -5.6396875 3.4021875 -7.3125 3.8125 C-11.6967857 5.22438861 -13.04846968 6.24718098 -15.1875 10.1875 C-15.455625 10.785625 -15.72375 11.38375 -16 12 C-16.99 11.67 -17.98 11.34 -19 11 C-19.66 12.32 -20.32 13.64 -21 15 C-24.66666667 15 -28.33333333 15 -32 15 C-32 13.68 -32 12.36 -32 11 C-33.32 10.34 -34.64 9.68 -36 9 C-36 8.34 -36 7.68 -36 7 C-36.99 7 -37.98 7 -39 7 C-39 6.34 -39 5.68 -39 5 C-39.66 5 -40.32 5 -41 5 C-40.67 4.34 -40.34 3.68 -40 3 C-38.37042688 4.09740625 -36.74648772 5.20318192 -35.125 6.3125 C-34.22007813 6.92738281 -33.31515625 7.54226562 -32.3828125 8.17578125 C-30 10 -30 10 -28 13 C-25.14239092 11.69543934 -23.03676049 10.26745037 -20.75 8.125 C-14.68271427 2.78839814 -8.12661554 -0.22573932 0 0 Z " fill="#1832D3" transform="translate(132,22)"/>
<path d="M0 0 C3.87989359 0.55427051 5.3528773 2.20161315 8 5 C9.24995655 5.95839001 10.49995952 6.91671947 11.75 7.875 C14.55199579 10.21696663 14.9438457 10.56680966 15.4375 14.375 C15.293125 15.24125 15.14875 16.1075 15 17 C14.443125 16.278125 13.88625 15.55625 13.3125 14.8125 C7.80195645 8.11048757 2.76637676 4.3282389 -6 3 C-6 2.67 -6 2.34 -6 2 C-4.02 1.67 -2.04 1.34 0 1 C0 0.67 0 0.34 0 0 Z " fill="#172CCF" transform="translate(82,33)"/>
<path d="M0 0 C4.11526292 0.64173654 7.30388435 2.86986158 10.75 5.0625 C11.35199219 5.43955078 11.95398438 5.81660156 12.57421875 6.20507812 C14.05249143 7.13193163 15.52666089 8.06532389 17 9 C15.68 9.33 14.36 9.66 13 10 C13 9.34 13 8.68 13 8 C11.35 8 9.7 8 8 8 C8 7.01 8 6.02 8 5 C5.36 4.67 2.72 4.34 0 4 C-0.12375 4.556875 -0.2475 5.11375 -0.375 5.6875 C-1.05976855 8.22114364 -1.99133763 10.57921032 -3 13 C-3.66 13 -4.32 13 -5 13 C-4.39254603 8.14036821 -2.27241033 4.2594482 0 0 Z " fill="#1E33C1" transform="translate(87,113)"/>
<path d="M0 0 C1.32 0.33 2.64 0.66 4 1 C1.26351683 2.87474981 -1.4910732 4.72097244 -4.25 6.5625 C-5.02730469 7.09552734 -5.80460937 7.62855469 -6.60546875 8.17773438 C-7.73662109 8.92700195 -7.73662109 8.92700195 -8.890625 9.69140625 C-9.58188477 10.15748291 -10.27314453 10.62355957 -10.98535156 11.10375977 C-13.43561996 12.1937907 -14.53019661 11.91285871 -17 11 C-17 10.34 -17 9.68 -17 9 C-14.36 8.34 -11.72 7.68 -9 7 C-9 5.02 -9 3.04 -9 1 C-8.01 1.33 -7.02 1.66 -6 2 C-6 2.66 -6 3.32 -6 4 C-4.02 3.34 -2.04 2.68 0 2 C0 1.34 0 0.68 0 0 Z " fill="#1931D0" transform="translate(127,123)"/>
<path d="M0 0 C-2.85410334 1.50560497 -5.68124642 2.63216796 -8.75 3.625 C-9.54921875 3.88539062 -10.3484375 4.14578125 -11.171875 4.4140625 C-11.77515625 4.60742188 -12.3784375 4.80078125 -13 5 C-13 5.66 -13 6.32 -13 7 C-14.32 7 -15.64 7 -17 7 C-17 8.32 -17 9.64 -17 11 C-19.64 11.99 -22.28 12.98 -25 14 C-22.5529769 8.17070413 -17.20902682 4.48268444 -11.58203125 1.8828125 C-7.68347114 0.5114597 -4.17363049 -0.40389973 0 0 Z " fill="#2438CA" transform="translate(72,22)"/>
<path d="M0 0 C0 3 0 3 -0.5625 4.9375 C-1.06292559 7.29664922 -0.73011998 8.7285156 0 11 C-0.61875 11.350625 -1.2375 11.70125 -1.875 12.0625 C-4.75554253 14.68887702 -5.15462838 17.26627537 -6 21 C-6.33 21 -6.66 21 -7 21 C-7.68790946 13.0890412 -4.94427173 6.16263095 0 0 Z " fill="#1D34D2" transform="translate(46,36)"/>
<path d="M0 0 C0 1.65 0 3.3 0 5 C-1.5778125 5.2165625 -1.5778125 5.2165625 -3.1875 5.4375 C-6.15460549 5.87526966 -9.06794366 6.37804866 -12 7 C-12 6.01 -12 5.02 -12 4 C-11.37351562 3.79503906 -10.74703125 3.59007813 -10.1015625 3.37890625 C-9.28429687 3.10949219 -8.46703125 2.84007813 -7.625 2.5625 C-6.81289062 2.29566406 -6.00078125 2.02882813 -5.1640625 1.75390625 C-0.12953368 0 -0.12953368 0 0 0 Z " fill="#0F2CE8" transform="translate(111,120)"/>
<path d="M0 0 C3.83694908 2.03132598 6.63488525 3.62639421 9.6875 6.75 C11.94007106 9.46490331 11.94007106 9.46490331 16 9 C16.66 8.67 17.32 8.34 18 8 C17.34 9.32 16.68 10.64 16 12 C13.69 12 11.38 12 9 12 C9 10.68 9 9.36 9 8 C7.68 7.34 6.36 6.68 5 6 C5 5.34 5 4.68 5 4 C4.01 4 3.02 4 2 4 C2 3.34 2 2.68 2 2 C1.34 2 0.68 2 0 2 C0 1.34 0 0.68 0 0 Z " fill="#2032C0" transform="translate(91,25)"/>
<path d="M0 0 C0.33 0.66 0.66 1.32 1 2 C-0.15628906 2.19916016 -0.15628906 2.19916016 -1.3359375 2.40234375 C-2.33882812 2.57894531 -3.34171875 2.75554687 -4.375 2.9375 C-5.87160156 3.19853516 -5.87160156 3.19853516 -7.3984375 3.46484375 C-9.96909656 3.87712062 -9.96909656 3.87712062 -12 5 C-11.0518738 2.62968451 -10.31103322 1.23327492 -8.25 -0.3125 C-5.19668446 -1.24545753 -3.05471873 -0.81459166 0 0 Z " fill="#1B31C7" transform="translate(71,101)"/>
<path d="M0 0 C0.66 0 1.32 0 2 0 C2 0.66 2 1.32 2 2 C2.66 2 3.32 2 4 2 C4.33 2.99 4.66 3.98 5 5 C7.31 5 9.62 5 12 5 C10.37660195 6.70884005 8.70680947 8.37446717 7 10 C6.34 10 5.68 10 5 10 C3.7109375 8.3203125 3.7109375 8.3203125 2.375 6.125 C1.92898437 5.40570313 1.48296875 4.68640625 1.0234375 3.9453125 C0 2 0 2 0 0 Z " fill="#1E34C0" transform="translate(45,86)"/>
<path d="M0 0 C1.98 0 3.96 0 6 0 C6 0.66 6 1.32 6 2 C6.66 2 7.32 2 8 2 C8 2.66 8 3.32 8 4 C8.99 4 9.98 4 11 4 C11 3.34 11 2.68 11 2 C12.32 2.33 13.64 2.66 15 3 C12.5625 4.8125 12.5625 4.8125 9 6 C5.7188256 4.75155315 2.89300953 2.97367539 0 1 C0 0.67 0 0.34 0 0 Z " fill="#1E2FC4" transform="translate(96,133)"/>
<path d="M0 0 C4.00833116 0.61666633 6.77995678 2.61996805 10 5 C10.99 6.485 10.99 6.485 12 8 C10.68 8 9.36 8 8 8 C7.67 7.01 7.34 6.02 7 5 C4.03 4.505 4.03 4.505 1 4 C0.67 2.68 0.34 1.36 0 0 Z " fill="#1E32C8" transform="translate(149,25)"/>
<path d="M0 0 C0.89203125 0.01804688 1.7840625 0.03609375 2.703125 0.0546875 C3.71632813 0.08949219 3.71632813 0.08949219 4.75 0.125 C4.75 0.455 4.75 0.785 4.75 1.125 C4.16992188 1.23457031 3.58984375 1.34414063 2.9921875 1.45703125 C-1.84746277 2.4393365 -5.90366116 3.67321911 -10.25 6.125 C-10 4.25 -10 4.25 -9.25 2.125 C-6.13870062 0.08851313 -3.66596268 -0.0964727 0 0 Z " fill="#1D32C7" transform="translate(70.25,34.875)"/>
<path d="M0 0 C0 0.99 0 1.98 0 3 C-0.99 3.33 -1.98 3.66 -3 4 C-3 4.99 -3 5.98 -3 7 C-2.34 7 -1.68 7 -1 7 C-1.33 7.66 -1.66 8.32 -2 9 C-3.98 8.34 -5.96 7.68 -8 7 C-5.4837822 4.39391727 -2.94865641 2.10618315 0 0 Z " fill="#1C33CB" transform="translate(125,110)"/>
<path d="M0 0 C0 1.65 0 3.3 0 5 C-2.31 4.67 -4.62 4.34 -7 4 C-1.7826087 0 -1.7826087 0 0 0 Z " fill="#1B32D0" transform="translate(111,120)"/>
<path d="M0 0 C1.5625 1.5625 1.5625 1.5625 3 4 C2.6875 7.75 2.6875 7.75 2 11 C1.67 11 1.34 11 1 11 C1 9.35 1 7.7 1 6 C0.34 6 -0.32 6 -1 6 C-0.67 4.02 -0.34 2.04 0 0 Z " fill="#122BE1" transform="translate(50,52)"/>
<path d="M0 0 C2.97 0.495 2.97 0.495 6 1 C6 1.66 6 2.32 6 3 C4.35 3.66 2.7 4.32 1 5 C0.67 3.35 0.34 1.7 0 0 Z " fill="#182FD1" transform="translate(120,35)"/>
<path d="M0 0 C1.45922693 0.11409593 2.91740598 0.24165544 4.375 0.375 C5.59316406 0.47941406 5.59316406 0.47941406 6.8359375 0.5859375 C9 1 9 1 11 3 C4.6 3.36923077 4.6 3.36923077 1.5625 1.5 C1.046875 1.005 0.53125 0.51 0 0 Z " fill="#2133C2" transform="translate(138,22)"/>
<path d="M0 0 C2.475 0.99 2.475 0.99 5 2 C5 3.98 5 5.96 5 8 C2.74754119 5.31158141 1.11786042 3.35358125 0 0 Z " fill="#1D33C1" transform="translate(92,42)"/>
<path d="M0 0 C0 0.99 0 1.98 0 3 C-1 4 -1 4 -4.5625 4.0625 C-5.696875 4.041875 -6.83125 4.02125 -8 4 C-7.67 3.01 -7.34 2.02 -7 1 C-5.824375 1.309375 -5.824375 1.309375 -4.625 1.625 C-3.75875 1.74875 -2.8925 1.8725 -2 2 C-1.34 1.34 -0.68 0.68 0 0 Z " fill="#2032D1" transform="translate(108,33)"/>
</svg>
