<?xml version="1.0" encoding="UTF-8"?>
<svg version="1.1" xmlns="http://www.w3.org/2000/svg" width="588" height="174">
<path d="M0 0 C0.91644287 0.00523682 1.83288574 0.01047363 2.77709961 0.01586914 C3.76645508 0.0190918 4.75581055 0.02231445 5.77514648 0.02563477 C6.81606445 0.03401367 7.85698242 0.04239258 8.92944336 0.05102539 C10.49662109 0.05779297 10.49662109 0.05779297 12.09545898 0.06469727 C14.68600996 0.07652627 17.27644895 0.0930085 19.86694336 0.11352539 C28.64030409 15.3877467 37.28318948 30.73206632 45.86694336 46.11352539 C48.57153784 42.87555904 50.78074172 39.70126833 52.74975586 35.97290039 C53.53177368 34.50143555 53.53177368 34.50143555 54.32958984 33.00024414 C55.15245483 31.44756836 55.15245483 31.44756836 55.99194336 29.86352539 C56.57468018 28.80262695 57.15741699 27.74172852 57.7578125 26.64868164 C60.44422966 21.75341618 63.0152041 16.90925624 65.16772461 11.75415039 C69.17971724 2.71890051 69.17971724 2.71890051 72.86694336 0.11352539 C80.04235648 -1.8357385 87.59971078 -0.94004218 94.86694336 0.11352539 C96.33805435 3.05574738 96.00570197 6.02543658 95.99633789 9.25024414 C95.99896637 10.35312523 95.99896637 10.35312523 96.00164795 11.47828674 C96.00606306 13.91922338 96.00312726 16.36008796 95.99975586 18.80102539 C96.00042957 20.5005698 96.00140017 22.20011412 96.00265503 23.8996582 C96.00413201 27.47079379 96.00197957 31.04190442 95.99731445 34.61303711 C95.99165175 39.16777058 95.99487405 43.72244467 96.00088692 48.2771759 C96.00452218 51.79299354 96.0033398 55.3087974 96.00075912 58.82461548 C96.00009623 60.50216682 96.00089577 62.17971945 96.00323868 63.85726929 C96.01246835 72.33326529 95.93170174 80.68850573 94.86694336 89.11352539 C91.38778359 89.14122281 87.90867874 89.16028224 84.42944336 89.17602539 C82.93960938 89.18859375 82.93960938 89.18859375 81.41967773 89.20141602 C80.47543945 89.20463867 79.53120117 89.20786133 78.55834961 89.21118164 C77.68380127 89.21641846 76.80925293 89.22165527 75.90820312 89.22705078 C73.86694336 89.11352539 73.86694336 89.11352539 72.86694336 88.11352539 C72.74496528 86.73301681 72.68925437 85.34654892 72.66162109 83.9609375 C72.63170326 82.63968117 72.63170326 82.63968117 72.60118103 81.29173279 C72.58446854 80.33444778 72.56775604 79.37716278 72.55053711 78.39086914 C72.52975601 77.41565811 72.50897491 76.44044708 72.48756409 75.4356842 C72.42195923 72.30753909 72.36313308 69.17930717 72.30444336 66.05102539 C72.26126852 63.93578189 72.21765459 61.8205473 72.17358398 59.70532227 C72.06626681 54.50814952 71.96452115 49.31088962 71.86694336 44.11352539 C71.29194092 45.14292236 71.29194092 45.14292236 70.70532227 46.19311523 C68.97096499 49.29352187 67.23152295 52.39104612 65.49194336 55.48852539 C64.88866211 56.56875977 64.28538086 57.64899414 63.66381836 58.76196289 C63.08374023 59.79321289 62.50366211 60.82446289 61.90600586 61.88696289 C61.37185059 62.84006348 60.83769531 63.79316406 60.28735352 64.77514648 C58.73014311 67.33873556 57.76647228 68.84340636 54.8425293 69.72143555 C48.13507938 70.88228978 41.28535189 71.8026521 34.86694336 69.11352539 C28.09506244 62.46252186 24.84251098 53.59473632 20.86694336 45.11352539 C20.53694336 59.63352539 20.20694336 74.15352539 19.86694336 89.11352539 C12.60694336 89.11352539 5.34694336 89.11352539 -2.13305664 89.11352539 C-3.05091383 71.6159622 -3.29102031 54.17723763 -3.26342773 36.66235352 C-3.25761372 32.91781817 -3.26110121 29.1733527 -3.2670002 25.42881966 C-3.27059508 22.52075663 -3.26947423 19.61271057 -3.26687241 16.70464706 C-3.26620612 15.32109443 -3.26702112 13.93754025 -3.26935196 12.55398941 C-3.2718731 10.64561236 -3.26735363 8.73722984 -3.26245117 6.82885742 C-3.26165558 5.74573273 -3.26085999 4.66260803 -3.26004028 3.54666138 C-3.09914548 0.46375297 -3.07182295 0.16348835 0 0 Z " fill="#304ECD" transform="translate(216.133056640625,54.886474609375)"/>
<path d="M0 0 C2.5625 2.375 2.5625 2.375 4.5625 5.375 C5.25472656 4.59576172 5.25472656 4.59576172 5.9609375 3.80078125 C13.45651509 -4.21326514 21.18299846 -8.18930641 32.125 -9.53125 C44.49226376 -9.86853901 53.52468811 -5.4281363 62.375 2.75 C70.29877393 11.07729946 72.00882024 21.37846583 71.80078125 32.546875 C70.69656871 50.28668309 61.391132 64.74109049 49.5625 77.375 C48.96824219 78.03757812 48.37398438 78.70015625 47.76171875 79.3828125 C39.84224434 87.83287204 29.70922506 94.75336833 19.73046875 100.51171875 C16.53759075 102.31356662 16.53759075 102.31356662 13.67578125 104.51953125 C10.47407394 106.66419467 8.39402685 107.82957088 4.5625 108.375 C-1.66191866 106.67225819 -7.1280543 102.93377839 -12.4375 99.375 C-13.0449707 98.9737793 -13.65244141 98.57255859 -14.27832031 98.15917969 C-15.66909548 97.23769948 -17.05403963 96.30742627 -18.4375 95.375 C-17.83004603 90.51536821 -15.70991033 86.6344482 -13.4375 82.375 C-9.61722781 82.375 -8.21209998 83.63588494 -5.0625 85.75 C-0.06005748 89.24389215 -0.06005748 89.24389215 5.5625 91.375 C23.5350987 84.77330035 43.91566152 66.33851339 52.07421875 49.19921875 C54.77103349 42.62331806 56.5625 36.50378281 56.5625 29.375 C56.5625 28.60414062 56.5625 27.83328125 56.5625 27.0390625 C56.17302058 19.90672059 53.1824331 14.92775533 48.125 10 C41.64922532 5.89341118 34.79068259 5.35892211 27.3515625 6.8046875 C21.91972209 8.49043108 18.43222556 11.48458011 15.5625 16.375 C13.96703974 20.33887643 12.76382913 24.26275797 11.5625 28.375 C6.9425 28.375 2.3225 28.375 -2.4375 28.375 C-3.12109375 25.640625 -3.8046875 22.90625 -4.48828125 20.171875 C-5.43780112 17.37411276 -6.62558556 15.66907655 -8.4375 13.375 C-8.4375 12.715 -8.4375 12.055 -8.4375 11.375 C-9.76008472 10.68725595 -11.09736503 10.02788627 -12.4375 9.375 C-13.448125 8.83875 -14.45875 8.3025 -15.5 7.75 C-21.25395776 5.36481238 -27.29024098 5.37055563 -33.19140625 7.25390625 C-39.07367417 9.91013155 -42.23514738 12.79670833 -45.4375 18.375 C-48.36987203 27.17211608 -47.16040058 38.9984737 -43.4375 47.375 C-42.16968511 49.78988551 -40.85496306 52.14189632 -39.42578125 54.46484375 C-38.4375 56.375 -38.4375 56.375 -38.4375 59.375 C-42.4375 61.375 -46.4375 63.375 -50.4375 65.375 C-58.40237828 53.13563704 -64.36918322 38.29725288 -62.4375 23.375 C-59.7261206 10.89649252 -54.3024687 2.22087958 -43.63671875 -4.8125 C-29.10050692 -12.99852405 -12.60039035 -10.02579136 0 0 Z " fill="#112EEA" transform="translate(111.4375,38.625)"/>
<path d="M0 0 C11.3286248 10.85659876 11.96164315 23.76639117 12.74804688 38.55078125 C13.17629243 45.39499392 14.12455239 51.67877491 16.00610352 58.28027344 C16.625 60.8125 16.625 60.8125 16.625 64.8125 C13.18794295 64.95755175 9.75166967 65.04648014 6.3125 65.125 C5.33603516 65.16689453 4.35957031 65.20878906 3.35351562 65.25195312 C0.69026083 65.29771352 -1.75374288 65.29080202 -4.375 64.8125 C-6.46875 62.4375 -6.46875 62.4375 -7.375 59.8125 C-7.9628125 58.6678125 -7.9628125 58.6678125 -8.5625 57.5 C-8.830625 56.943125 -9.09875 56.38625 -9.375 55.8125 C-10.014375 56.555 -10.65375 57.2975 -11.3125 58.0625 C-16.55854179 63.19163835 -22.43124784 65.0621556 -29.6875 65.375 C-39.71041877 65.01244401 -48.21432806 61.13030638 -55.40234375 54.1640625 C-62.57674945 45.61160264 -65.82519209 35.00379998 -65.21484375 23.8984375 C-63.77824661 13.99568052 -59.48664598 4.88880624 -51.375 -1.1875 C-35.20880866 -11.3323708 -15.39278258 -12.40218482 0 0 Z M-39.0625 17 C-42.03705196 21.10771461 -42.64516005 26.06847943 -42.1875 31 C-41.19511977 35.65655341 -39.96045263 38.42522895 -36.375 41.5625 C-31.67456237 44.50027352 -26.73421019 44.26397793 -21.375 43.8125 C-17.58672961 42.5497432 -15.77455519 41.2225698 -13 38.375 C-10.17769628 32.18764184 -10.43501715 25.7368911 -12.5 19.3125 C-14.96338947 16.02798071 -16.5963175 14.53610956 -20.375 12.8125 C-28.04249752 11.88782889 -32.75066868 12.55834092 -39.0625 17 Z " fill="#304FCD" transform="translate(528.375,79.1875)"/>
<path d="M0 0 C7.26 0 14.52 0 22 0 C22.9048441 3.6193764 23.13415117 6.37000189 23.125 10.0625 C23.12886719 11.62677734 23.12886719 11.62677734 23.1328125 13.22265625 C23 16 23 16 22 19 C28.6 19 35.2 19 42 19 C42.02683201 22.47921735 42.0467567 25.95823039 42.0625 29.4375 C42.07087891 30.43072266 42.07925781 31.42394531 42.08789062 32.44726562 C42.09111328 33.39150391 42.09433594 34.33574219 42.09765625 35.30859375 C42.10289307 36.18314209 42.10812988 37.05769043 42.11352539 37.95874023 C42 40 42 40 41 41 C39.58429877 41.08651611 38.164405 41.10704904 36.74609375 41.09765625 C35.89208984 41.09443359 35.03808594 41.09121094 34.15820312 41.08789062 C33.26037109 41.07951172 32.36253906 41.07113281 31.4375 41.0625 C30.53580078 41.05798828 29.63410156 41.05347656 28.70507812 41.04882812 C26.46998686 41.03700225 24.23502563 41.0205222 22 41 C22.33 41.66 22.66 42.32 23 43 C23.23296698 46.53887942 23.39433488 50.0712395 23.51757812 53.61523438 C23.78735698 59.54564038 23.78735698 59.54564038 26 65 C31.98565358 68.8544978 39.18000295 68 46 68 C46 75.26 46 82.52 46 90 C31.59133049 90.39296371 21.11268297 89.19591406 10.05859375 79.25390625 C2.2006745 71.09049554 -0.56992779 61.47303978 -0.56648254 50.34002686 C-0.54067612 49.06766174 -0.51486969 47.79529663 -0.48828125 46.484375 C-0.47892691 45.13390428 -0.47182324 43.7834163 -0.46684265 42.43292236 C-0.44797771 38.92103149 -0.39906361 35.41021588 -0.34332275 31.89874268 C-0.29167929 28.29852841 -0.26923364 24.69813612 -0.24414062 21.09765625 C-0.19091689 14.06462857 -0.1031577 7.03249875 0 0 Z " fill="#304FCD" transform="translate(360,54)"/>
<path d="M0 0 C1.58937556 1.58937556 1.12981143 3.23899846 1.1328125 5.4375 C1.13474609 6.77941406 1.13474609 6.77941406 1.13671875 8.1484375 C1.13285156 9.08945313 1.12898438 10.03046875 1.125 11 C1.13080078 12.41152344 1.13080078 12.41152344 1.13671875 13.8515625 C1.13542969 14.74617188 1.13414062 15.64078125 1.1328125 16.5625 C1.13168457 17.38878906 1.13055664 18.21507813 1.12939453 19.06640625 C1 21 1 21 0 22 C-2.03998851 22.13304273 -4.08230011 22.23107119 -6.125 22.3125 C-11.92693229 22.73283758 -15.48519341 23.28782569 -20 27 C-22.2349284 31.99887036 -22.32371494 36.71011046 -22.37890625 42.08203125 C-22.39590073 42.93681564 -22.4128952 43.79160004 -22.43040466 44.67228699 C-22.48327575 47.38561757 -22.52374509 50.098934 -22.5625 52.8125 C-22.60641077 55.54384564 -22.65301948 58.2750729 -22.70530701 61.00627136 C-22.73730633 62.70223544 -22.76418323 64.39830514 -22.78553772 66.09443665 C-22.88819089 71.88819089 -22.88819089 71.88819089 -24 73 C-25.56172745 73.08685603 -27.12729344 73.10702219 -28.69140625 73.09765625 C-29.63564453 73.09443359 -30.57988281 73.09121094 -31.55273438 73.08789062 C-32.54595703 73.07951172 -33.53917969 73.07113281 -34.5625 73.0625 C-35.55958984 73.05798828 -36.55667969 73.05347656 -37.58398438 73.04882812 C-40.05604849 73.03700007 -42.52799518 73.02051849 -45 73 C-46.79234076 67.32172143 -46.18594371 61.15399012 -46.18530273 55.25830078 C-46.18746567 53.03527997 -46.20556981 50.81277529 -46.22460938 48.58984375 C-46.28105309 34.71119891 -45.67959629 21.10887319 -35.9375 10.25 C-26.57120071 1.69288423 -12.53213877 -3.13303469 0 0 Z " fill="#304FCD" transform="translate(459,71)"/>
<path d="M0 0 C0.87454834 0.00523682 1.74909668 0.01047363 2.65014648 0.01586914 C3.59438477 0.0190918 4.53862305 0.02231445 5.51147461 0.02563477 C6.50469727 0.03401367 7.49791992 0.04239258 8.52124023 0.05102539 C9.51833008 0.05553711 10.51541992 0.06004883 11.54272461 0.06469727 C14.01478872 0.07652532 16.48673541 0.0930069 18.95874023 0.11352539 C19.95179485 3.09268925 20.08539967 5.04813161 20.08813477 8.15722656 C20.09128693 9.18647751 20.09443909 10.21572845 20.09768677 11.27616882 C20.09566254 12.39167618 20.09363831 13.50718353 20.09155273 14.65649414 C20.09298782 16.39108635 20.09298782 16.39108635 20.0944519 18.16072083 C20.0951335 20.61788995 20.09328064 23.07506088 20.08911133 25.53222656 C20.08382577 29.24100971 20.089024 32.94966822 20.09545898 36.65844727 C20.09854252 48.84795984 19.99143649 60.96228961 18.95874023 73.11352539 C15.47959083 73.14240353 12.00047193 73.16028226 8.52124023 73.17602539 C7.03140625 73.18859375 7.03140625 73.18859375 5.51147461 73.20141602 C4.56723633 73.20463867 3.62299805 73.20786133 2.65014648 73.21118164 C1.77559814 73.21641846 0.9010498 73.22165527 0 73.22705078 C-2.04125977 73.11352539 -2.04125977 73.11352539 -3.04125977 72.11352539 C-3.14086128 69.91027565 -3.16925734 67.70379049 -3.1706543 65.49829102 C-3.17240662 64.80724777 -3.17415894 64.11620453 -3.17596436 63.40422058 C-3.18038231 61.10938032 -3.1774451 58.8146165 -3.17407227 56.51977539 C-3.17474532 54.93176254 -3.17571536 53.3437498 -3.17697144 51.7557373 C-3.17844833 48.42332989 -3.17629412 45.09094923 -3.17163086 41.75854492 C-3.16593357 37.47754029 -3.16921262 33.19659834 -3.17520332 28.91559601 C-3.17880916 25.63518803 -3.17767025 22.35479502 -3.17507553 19.0743866 C-3.17440633 17.49545789 -3.17523446 15.91652785 -3.17755508 14.33760071 C-3.18008199 12.13461686 -3.17624051 9.93173591 -3.1706543 7.72875977 C-3.1698587 6.47268921 -3.16906311 5.21661865 -3.16824341 3.92248535 C-2.9984597 0.16676041 -2.9984597 0.16676041 0 0 Z " fill="#2E4CD0" transform="translate(328.041259765625,70.886474609375)"/>
<path d="M0 0 C3.14240528 1.68795867 5.26435802 3.99685185 7.375 6.875 C8.68486187 11.32853036 8.40578932 14.94494778 6.75 19.25 C4.51473204 22.76256394 3.06879163 24.49069824 -1.046875 25.50390625 C-6.23008184 26.33008855 -9.53739903 26.08131972 -14 23 C-17.3266892 20.01745106 -17.7279227 16.53074625 -18.05859375 12.24609375 C-17.96833011 8.78598755 -17.01171869 6.7904485 -15 4 C-10.4092027 -0.15357851 -5.99246409 -1.25423667 0 0 Z " fill="#304ECB" transform="translate(341,40)"/>
<path d="M0 0 C3.14594451 3.30324174 4 5.04802963 4 9.625 C2.89134076 13.36672494 2.20778162 14.80520205 -1 17 C-4.34783056 17.83695764 -6.8672084 18.25173147 -10.25 17.5 C-13.14541913 15.01821217 -13.98622637 12.63765832 -15 9 C-13.92777305 4.97914894 -12.86248834 2.76665631 -9.75 0 C-5.97988664 -1.37095031 -3.82696646 -1.18288054 0 0 Z " fill="#0F2DEF" transform="translate(83,109)"/>
<path d="M0 0 C0.87454834 0.00523682 1.74909668 0.01047363 2.65014648 0.01586914 C3.59438477 0.0190918 4.53862305 0.02231445 5.51147461 0.02563477 C6.50469727 0.03401367 7.49791992 0.04239258 8.52124023 0.05102539 C9.51833008 0.05553711 10.51541992 0.06004883 11.54272461 0.06469727 C14.01478872 0.07652532 16.48673541 0.0930069 18.95874023 0.11352539 C19.28874023 0.77352539 19.61874023 1.43352539 19.95874023 2.11352539 C13.02874023 2.11352539 6.09874023 2.11352539 -1.04125977 2.11352539 C-1.04125977 25.21352539 -1.04125977 48.31352539 -1.04125977 72.11352539 C-0.38125977 72.44352539 0.27874023 72.77352539 0.95874023 73.11352539 C-0.36125977 72.78352539 -1.68125977 72.45352539 -3.04125977 72.11352539 C-3.06438501 62.87354987 -3.08217577 53.63358425 -3.09307194 44.39358616 C-3.09830037 40.10352624 -3.10539729 35.81348606 -3.11669922 31.5234375 C-3.12752952 27.38673139 -3.1335369 23.25004431 -3.13613701 19.11332512 C-3.137991 17.53160235 -3.14161112 15.94988068 -3.14698982 14.36816597 C-3.15420216 12.16029701 -3.15525063 9.95250766 -3.15478516 7.74462891 C-3.15700577 6.48554214 -3.15922638 5.22645538 -3.16151428 3.92921448 C-3.00083026 0.16689225 -3.00083026 0.16689225 0 0 Z " fill="#354FAD" transform="translate(328.041259765625,70.886474609375)"/>
<path d="M0 0 C0.33 0 0.66 0 1 0 C1.02505615 0.7520874 1.0501123 1.5041748 1.07592773 2.27905273 C1.19150514 5.66539196 1.31440345 9.05142613 1.4375 12.4375 C1.47681641 13.62150391 1.51613281 14.80550781 1.55664062 16.02539062 C1.59853516 17.15009766 1.64042969 18.27480469 1.68359375 19.43359375 C1.72025146 20.47572021 1.75690918 21.51784668 1.79467773 22.59155273 C1.73515341 24.9499826 1.73515341 24.9499826 3 26 C3.09311889 27.50418739 3.11746028 29.01271356 3.11352539 30.51977539 C3.11341209 31.96115623 3.11341209 31.96115623 3.11329651 33.43165588 C3.10813522 34.476436 3.10297394 35.52121613 3.09765625 36.59765625 C3.09553383 38.19364906 3.09553383 38.19364906 3.09336853 39.82188416 C3.08775064 43.23545083 3.07519511 46.648953 3.0625 50.0625 C3.05748731 52.37044176 3.052924 54.67838455 3.04882812 56.98632812 C3.0377754 62.65757426 3.02101987 68.32878253 3 74 C2.34 74 1.68 74 1 74 C0.10178393 57.34383505 -0.12573226 40.74030792 -0.0625 24.0625 C-0.05746592 21.71028743 -0.05290645 19.3580738 -0.04882812 17.00585938 C-0.03799439 11.33721567 -0.02141298 5.66861312 0 0 Z " fill="#152AD6" transform="translate(213,70)"/>
<path d="M0 0 C0.66 0.66 1.32 1.32 2 2 C1.67 2.99 1.34 3.98 1 5 C7.6 5 14.2 5 21 5 C21.02683201 8.47921735 21.0467567 11.95823039 21.0625 15.4375 C21.07087891 16.43072266 21.07925781 17.42394531 21.08789062 18.44726562 C21.09272461 19.86362305 21.09272461 19.86362305 21.09765625 21.30859375 C21.10551147 22.62041626 21.10551147 22.62041626 21.11352539 23.95874023 C21 26 21 26 20 27 C18.58429877 27.08651611 17.164405 27.10704904 15.74609375 27.09765625 C14.89208984 27.09443359 14.03808594 27.09121094 13.15820312 27.08789062 C12.26037109 27.07951172 11.36253906 27.07113281 10.4375 27.0625 C9.53580078 27.05798828 8.63410156 27.05347656 7.70507812 27.04882812 C5.46998686 27.03700225 3.23502563 27.0205222 1 27 C1 26.01 1 25.02 1 24 C7.27 24.33 13.54 24.66 20 25 C20 19.06 20 13.12 20 7 C18.64003906 7.01160156 17.28007812 7.02320312 15.87890625 7.03515625 C14.1067722 7.04453262 12.33463667 7.05363298 10.5625 7.0625 C9.21575195 7.07506836 9.21575195 7.07506836 7.84179688 7.08789062 C6.56079102 7.09272461 6.56079102 7.09272461 5.25390625 7.09765625 C4.46314697 7.10289307 3.6723877 7.10812988 2.85766602 7.11352539 C1 7 1 7 0 6 C-0.04080783 4.00041636 -0.04254356 1.99954746 0 0 Z " fill="#3D51AD" transform="translate(381,68)"/>
<path d="M0 0 C7.26 0 14.52 0 22 0 C21.34 0.66 20.68 1.32 20 2 C14.06 2 8.12 2 2 2 C1.67 21.14 1.34 40.28 1 60 C0.67 60 0.34 60 0 60 C0 40.2 0 20.4 0 0 Z " fill="#334EB1" transform="translate(360,54)"/>
<path d="M0 0 C0.79921875 0.00902344 1.5984375 0.01804687 2.421875 0.02734375 C3.02515625 0.03894531 3.6284375 0.05054687 4.25 0.0625 C4.25 0.7225 4.25 1.3825 4.25 2.0625 C0.29 2.0625 -3.67 2.0625 -7.75 2.0625 C-8.08 3.0525 -8.41 4.0425 -8.75 5.0625 C-11.97791555 7.2144437 -13.03400809 7.26336443 -16.75 7.0625 C-17.96690533 8.82779595 -17.96690533 8.82779595 -18.75 11.0625 C-17.96690533 13.29720405 -17.96690533 13.29720405 -16.75 15.0625 C-18.07 15.0625 -19.39 15.0625 -20.75 15.0625 C-21.08 14.4025 -21.41 13.7425 -21.75 13.0625 C-22.53375 13.8875 -23.3175 14.7125 -24.125 15.5625 C-26.75 18.0625 -26.75 18.0625 -28.75 18.0625 C-26.5199934 11.34912936 -21.3860904 7.08898351 -15.296875 3.6953125 C-10.16760896 1.36846003 -5.66644656 -0.0833301 0 0 Z " fill="#344EBE" transform="translate(447.75,70.9375)"/>
<path d="M0 0 C0.99 0.33 1.98 0.66 3 1 C1.7934375 2.11375 1.7934375 2.11375 0.5625 3.25 C-2.73715998 6.79109852 -3.09840432 9.32979023 -3.20532227 14.03417969 C-3.22526749 14.81468689 -3.24521271 15.59519409 -3.26576233 16.39935303 C-3.28247482 17.23178528 -3.29918732 18.06421753 -3.31640625 18.921875 C-3.33718735 19.78186096 -3.35796844 20.64184692 -3.37937927 21.52789307 C-3.44463739 24.26851598 -3.50364917 27.00923275 -3.5625 29.75 C-3.60570781 31.6106867 -3.64932282 33.47136398 -3.69335938 35.33203125 C-3.80029442 39.88792523 -3.90162851 44.4439134 -4 49 C-4.33 49 -4.66 49 -5 49 C-5.80761238 39.32307312 -6.17614947 29.64608388 -6.3125 19.9375 C-6.34214844 18.86765869 -6.37179687 17.79781738 -6.40234375 16.69555664 C-6.45113707 10.22993284 -5.91113171 6.23177358 -2 1 C-1.34 0.67 -0.68 0.34 0 0 Z " fill="#314BB7" transform="translate(440,94)"/>
<path d="M0 0 C0.10079752 4.53588835 -0.56981609 7.70944828 -2 12 C-3.80066242 9.0534615 -5.50163895 6.11198065 -7 3 C-7.680625 3.763125 -8.36125 4.52625 -9.0625 5.3125 C-12.35898525 8.32843331 -14.86306835 9.45879017 -19 11 C-19 10.01 -19 9.02 -19 8 C-18.0925 7.79375 -17.185 7.5875 -16.25 7.375 C-12.22170758 5.67072244 -11.25413171 3.65324795 -9 0 C-5.52176885 -1.15941038 -3.54104422 -0.70820884 0 0 Z " fill="#324DC6" transform="translate(526,132)"/>
<path d="M0 0 C0.66 0 1.32 0 2 0 C0.4986895 4.52089547 -2.02974542 7.98252555 -4.9375 11.6875 C-5.60168945 12.55858398 -5.60168945 12.55858398 -6.27929688 13.44726562 C-8.37897757 16.1540075 -10.12577401 18.08384934 -13 20 C-13 17.03 -13 14.06 -13 11 C-9 10 -9 10 -6 10 C-5.731875 9.030625 -5.46375 8.06125 -5.1875 7.0625 C-4.5996875 5.5465625 -4.5996875 5.5465625 -4 4 C-3.01 3.67 -2.02 3.34 -1 3 C-0.67 2.01 -0.34 1.02 0 0 Z " fill="#1631D5" transform="translate(173,96)"/>
<path d="M0 0 C0.66 0.33 1.32 0.66 2 1 C1.401875 1.78375 0.80375 2.5675 0.1875 3.375 C-2.64476859 7.56796703 -3.68949669 12.15113776 -5 17 C-9.62 17 -14.24 17 -19 17 C-19 15.35 -19 13.7 -19 12 C-18.67 13.32 -18.34 14.64 -18 16 C-14.04 16 -10.08 16 -6 16 C-6 13.36 -6 10.72 -6 8 C-6.66 8 -7.32 8 -8 8 C-8 7.01 -8 6.02 -8 5 C-7.360625 4.71125 -6.72125 4.4225 -6.0625 4.125 C-3.84793921 3.17176549 -3.84793921 3.17176549 -3 1 C-2.01 0.67 -1.02 0.34 0 0 Z " fill="#1D33C2" transform="translate(128,50)"/>
<path d="M0 0 C2.67179249 4.77105802 4 9.53911054 4 15 C-1.61 14.67 -7.22 14.34 -13 14 C-12.67 13.34 -12.34 12.68 -12 12 C-9.03 12.33 -6.06 12.66 -3 13 C-2.67 11.35 -2.34 9.7 -2 8 C-1.01 7.67 -0.02 7.34 1 7 C0.67 4.69 0.34 2.38 0 0 Z " fill="#384FBD" transform="translate(541,129)"/>
<path d="M0 0 C2.98079034 2.98079034 2.38692022 6.3706455 2.5 10.375 C2.50953541 16.99846983 2.50953541 16.99846983 5 23 C3.02 23 1.04 23 -1 23 C-2.02495215 19.92514354 -2.001599 18.48535546 -1.66015625 15.33203125 C-1.56669922 14.43935547 -1.47324219 13.54667969 -1.37695312 12.62695312 C-1.27318359 11.69818359 -1.16941406 10.76941406 -1.0625 9.8125 C-0.96259766 8.87212891 -0.86269531 7.93175781 -0.75976562 6.96289062 C-0.51228034 4.64124292 -0.25880867 2.32040817 0 0 Z " fill="#2D58B4" transform="translate(381,95)"/>
<path d="M0 0 C0.78826172 0.01353516 1.57652344 0.02707031 2.38867188 0.04101562 C4.32191169 0.07616544 6.25479682 0.12996639 8.1875 0.1875 C7.8575 0.8475 7.5275 1.5075 7.1875 2.1875 C5.75857422 2.13529297 5.75857422 2.13529297 4.30078125 2.08203125 C3.04652344 2.05496094 1.79226563 2.02789062 0.5 2 C-0.74136719 1.96519531 -1.98273438 1.93039063 -3.26171875 1.89453125 C-7.04253929 2.20648014 -8.81906618 2.92337551 -11.8125 5.1875 C-14.88988935 9.17670842 -15.74711206 13.35227781 -16.8125 18.1875 C-17.1425 18.1875 -17.4725 18.1875 -17.8125 18.1875 C-17.8125 15.5475 -17.8125 12.9075 -17.8125 10.1875 C-18.4725 10.1875 -19.1325 10.1875 -19.8125 10.1875 C-20.1425 8.8675 -20.4725 7.5475 -20.8125 6.1875 C-19.4925 6.5175 -18.1725 6.8475 -16.8125 7.1875 C-16.4825 6.5275 -16.1525 5.8675 -15.8125 5.1875 C-15.1525 5.1875 -14.4925 5.1875 -13.8125 5.1875 C-13.8125 4.5275 -13.8125 3.8675 -13.8125 3.1875 C-9.44350608 -0.42852102 -5.37415975 -0.17568502 0 0 Z " fill="#314DB1" transform="translate(502.8125,90.8125)"/>
<path d="M0 0 C0.33 0 0.66 0 1 0 C1.042721 1.66611905 1.04063832 3.33382885 1 5 C0.67 5.33 0.34 5.66 0 6 C-0.12888034 8.65853175 -0.19002888 11.27824458 -0.1875 13.9375 C-0.18741943 14.70642578 -0.18733887 15.47535156 -0.18725586 16.26757812 C-0.49206432 25.76313753 -0.49206432 25.76313753 3 34 C3.04063832 35.66617115 3.042721 37.33388095 3 39 C-2.48186641 33.51813359 -2.9520605 22.11007984 -3.25 14.6875 C-3.21418697 9.49461106 -1.70613414 4.86451342 0 0 Z " fill="#152FC7" transform="translate(52,52)"/>
<path d="M0 0 C1.485 0.99 1.485 0.99 3 2 C3.12346021 4.92195563 3.06491915 7.60506465 2.85546875 10.5078125 C2.80683182 11.34843231 2.75819489 12.18905212 2.70808411 13.05514526 C2.54903394 15.74620343 2.36852104 18.43533901 2.1875 21.125 C2.07606036 22.94652865 1.96601632 24.76814326 1.85742188 26.58984375 C1.58781297 31.06105503 1.29894524 35.53065817 1 40 C0.67 40 0.34 40 0 40 C-0.14384827 35.57092712 -0.28621133 31.14180964 -0.42724609 26.71264648 C-0.47534835 25.20840186 -0.52384423 23.70416976 -0.57275391 22.19995117 C-0.64330893 20.02786446 -0.71241062 17.85573543 -0.78125 15.68359375 C-0.82314453 14.37962646 -0.86503906 13.07565918 -0.90820312 11.73217773 C-1.08629015 4.49170875 -1.08629015 4.49170875 -1 1 C-0.67 0.67 -0.34 0.34 0 0 Z " fill="#2442BC" transform="translate(214,55)"/>
<path d="M0 0 C0.33 1.32 0.66 2.64 1 4 C1.99 4 2.98 4 4 4 C3.979375 5.134375 3.95875 6.26875 3.9375 7.4375 C3.58422523 10.81575674 3.58422523 10.81575674 5 12 C7.32817964 12.36760731 9.6618385 12.70241581 12 13 C11.34 13.66 10.68 14.32 10 15 C6.15995239 14.85777601 3.74756394 14.55083658 0.625 12.25 C-1.23488661 9.67477239 -1.84539052 8.16949431 -2 5 C-1.0625 2.1875 -1.0625 2.1875 0 0 Z " fill="#1536D5" transform="translate(70,112)"/>
<path d="M0 0 C2.5 2.625 2.5 2.625 4 6 C3.85471308 10.28596411 3.38479482 12.42280778 1 16 C0.34 16 -0.32 16 -1 16 C-1 15.34 -1 14.68 -1 14 C-0.34 14 0.32 14 1 14 C1.33 11.03 1.66 8.06 2 5 C-2.71439085 2.64280457 -6.75642693 2 -12 2 C-7.76910018 -1.20522714 -5.08399752 -1.57141741 0 0 Z " fill="#1B33C4" transform="translate(83,109)"/>
<path d="M0 0 C0 0.99 0 1.98 0 3 C-0.61875 3.2475 -1.2375 3.495 -1.875 3.75 C-4.35068687 5.20628639 -4.95125002 6.37812506 -6 9 C-6.66 9 -7.32 9 -8 9 C-8 8.34 -8 7.68 -8 7 C-8.83144531 7.03480469 -9.66289062 7.06960937 -10.51953125 7.10546875 C-12.14955078 7.14607422 -12.14955078 7.14607422 -13.8125 7.1875 C-14.89144531 7.22230469 -15.97039062 7.25710937 -17.08203125 7.29296875 C-20 7 -20 7 -21.88671875 5.48828125 C-22.43779297 4.75158203 -22.43779297 4.75158203 -23 4 C-22.67 3.34 -22.34 2.68 -22 2 C-21.38125 2.33 -20.7625 2.66 -20.125 3 C-14.41190204 4.82819135 -9.00274271 4.80812425 -3.4375 2.5625 C-1.14278259 1.21401488 -1.14278259 1.21401488 0 0 Z " fill="#3A50B2" transform="translate(514,118)"/>
<path d="M0 0 C5.61 0 11.22 0 17 0 C18.33332095 2.6666419 17.67102033 4.16680303 17 7 C14.5625 6.1875 14.5625 6.1875 12 5 C11.67 4.01 11.34 3.02 11 2 C7.37 1.67 3.74 1.34 0 1 C0 0.67 0 0.34 0 0 Z " fill="#354AB6" transform="translate(294,55)"/>
<path d="M0 0 C0.99 0.33 1.98 0.66 3 1 C2.02262231 2.64689635 1.0430468 4.29248854 0.0625 5.9375 C-0.75541016 7.31228516 -0.75541016 7.31228516 -1.58984375 8.71484375 C-3 11 -3 11 -4 12 C-5.63472882 12.08700342 -7.27314055 12.10701063 -8.91015625 12.09765625 C-9.89951172 12.09443359 -10.88886719 12.09121094 -11.90820312 12.08789062 C-12.94912109 12.07951172 -13.99003906 12.07113281 -15.0625 12.0625 C-16.10728516 12.05798828 -17.15207031 12.05347656 -18.22851562 12.04882812 C-20.8190666 12.03699913 -23.40950559 12.02051689 -26 12 C-26.33 11.01 -26.66 10.02 -27 9 C-26.34 9 -25.68 9 -25 9 C-25 9.66 -25 10.32 -25 11 C-18.4 11 -11.8 11 -5 11 C-5 10.34 -5 9.68 -5 9 C-4.34 9 -3.68 9 -3 9 C-3 7.35 -3 5.7 -3 4 C-2.01 3.67 -1.02 3.34 0 3 C0 2.01 0 1.02 0 0 Z " fill="#394EAE" transform="translate(277,112)"/>
<path d="M0 0 C7.04573668 0.37082825 13.17280791 4.45552712 18.3046875 9.07421875 C20 11 20 11 20 13 C19.01 13 18.02 13 17 13 C15.96210419 11.35666496 14.96432076 9.68756133 14 8 C11.08235 6.0549 9.37462715 5.54723683 6 5 C5.67 5.66 5.34 6.32 5 7 C2.84365964 4.84365964 1.52206009 2.62901288 0 0 Z " fill="#3450BD" transform="translate(512,72)"/>
<path d="M0 0 C2 1 2 1 2.8515625 2.7578125 C5.81018924 11.81300342 6.19579446 21.70328959 4 31 C3.67 31 3.34 31 3 31 C2.96241577 29.9941687 2.96241577 29.9941687 2.92407227 28.96801758 C2.80769199 25.9160041 2.68515652 22.86426742 2.5625 19.8125 C2.52318359 18.75740234 2.48386719 17.70230469 2.44335938 16.61523438 C2.40146484 15.59365234 2.35957031 14.57207031 2.31640625 13.51953125 C2.27974854 12.58214111 2.24309082 11.64475098 2.20532227 10.67895508 C2.00374401 8.04885018 1.57321679 5.57233586 1 3 C0.34 3 -0.32 3 -1 3 C-0.67 2.01 -0.34 1.02 0 0 Z " fill="#1B34C3" transform="translate(178,49)"/>
<path d="M0 0 C0 0.66 0 1.32 0 2 C-3.96 2 -7.92 2 -12 2 C-12.33 2.99 -12.66 3.98 -13 5 C-16.6441774 7.4294516 -18.71241272 7.16179575 -23 7 C-17.35835059 0.48034555 -8.1077346 -0.53165473 0 0 Z " fill="#3D50B2" transform="translate(452,71)"/>
<path d="M0 0 C0 0.66 0 1.32 0 2 C-0.56509277 2.02505615 -1.13018555 2.0501123 -1.71240234 2.07592773 C-4.26683742 2.19179956 -6.8208955 2.31456537 -9.375 2.4375 C-10.26445312 2.47681641 -11.15390625 2.51613281 -12.0703125 2.55664062 C-12.92109375 2.59853516 -13.771875 2.64042969 -14.6484375 2.68359375 C-15.43395996 2.72025146 -16.21948242 2.75690918 -17.02880859 2.79467773 C-19.07523496 2.890891 -19.07523496 2.890891 -21 4 C-23.125 3.0625 -23.125 3.0625 -25 2 C-16.33487617 -0.7078512 -8.97661464 -1.19565564 0 0 Z " fill="#374EB5" transform="translate(511,71)"/>
<path d="M0 0 C0.33 0 0.66 0 1 0 C0.74883788 5.76417073 0.4748791 9.89802749 -4 14 C-7.4274141 15.84553067 -10.13505158 16.2208542 -14 16 C-11.03312999 14.35173889 -8.34373475 13.55728913 -5 13 C-4.855625 12.236875 -4.71125 11.47375 -4.5625 10.6875 C-4 8 -4 8 -3 5 C-2.34 5 -1.68 5 -1 5 C-0.67 3.35 -0.34 1.7 0 0 Z " fill="#354CB0" transform="translate(348,50)"/>
<path d="M0 0 C0.66 0 1.32 0 2 0 C2 0.66 2 1.32 2 2 C2.845625 1.79375 3.69125 1.5875 4.5625 1.375 C8.53560946 0.94156988 11.24624618 1.7237237 15 3 C15 3.33 15 3.66 15 4 C14.29875 4.03738281 13.5975 4.07476562 12.875 4.11328125 C6.67748398 4.54272869 1.69990204 5.52645761 -4 8 C-3.67 6.68 -3.34 5.36 -3 4 C-2.34 4 -1.68 4 -1 4 C-0.67 2.68 -0.34 1.36 0 0 Z " fill="#1630D1" transform="translate(77,40)"/>
<path d="M0 0 C3.27377113 1.7151566 5.53917438 3.78210371 6.875 7.3125 C6.91625 7.869375 6.9575 8.42625 7 9 C6.01 8.67 5.02 8.34 4 8 C4 7.01 4 6.02 4 5 C2.35 5 0.7 5 -1 5 C-1 3.68 -1 2.36 -1 1 C-5.94828874 2.09030091 -9.7558248 3.12894031 -14 6 C-14.99 6.495 -14.99 6.495 -16 7 C-15.0195412 4.41515408 -14.06077857 3.05156969 -11.9375 1.25 C-7.86718332 -0.48204965 -4.35560367 -0.82672266 0 0 Z " fill="#3547B2" transform="translate(341,40)"/>
<path d="M0 0 C6.55711013 0.27902596 10.95290044 2.86775148 16 7 C16.99 8.485 16.99 8.485 18 10 C16.02 10.33 14.04 10.66 12 11 C12.33 10.01 12.66 9.02 13 8 C12.21625 7.731875 11.4325 7.46375 10.625 7.1875 C8 6 8 6 6 3 C2.94570927 1.78715124 2.94570927 1.78715124 0 1 C0 0.67 0 0.34 0 0 Z " fill="#172ECD" transform="translate(154,31)"/>
<path d="M0 0 C1.98 0 3.96 0 6 0 C1.91411485 3.69047691 -2.61636086 6.66825769 -8 8 C-11.5625 6.75 -11.5625 6.75 -14 5 C-10.32589215 3.82428549 -6.83070817 3.92633254 -3 4 C-3 3.34 -3 2.68 -3 2 C-2.01 2 -1.02 2 0 2 C0 1.34 0 0.68 0 0 Z " fill="#1B3BC1" transform="translate(124,139)"/>
<path d="M0 0 C3.11990898 2.78533429 3.53816182 4.84345641 4 9 C4.66 9 5.32 9 6 9 C6 9.66 6 10.32 6 11 C5.34 11 4.68 11 4 11 C4 11.99 4 12.98 4 14 C3.01 14 2.02 14 1 14 C0.06380187 10.84493858 -0.1057123 8.03413498 -0.0625 4.75 C-0.05347656 3.85796875 -0.04445313 2.9659375 -0.03515625 2.046875 C-0.02355469 1.37140625 -0.01195312 0.6959375 0 0 Z " fill="#2438D4" transform="translate(413,130)"/>
<path d="M0 0 C1.7936743 1.1217963 3.5848773 2.24754483 5.375 3.375 C6.37273437 4.00148438 7.37046875 4.62796875 8.3984375 5.2734375 C11 7 11 7 13 9 C10.03 8.67 7.06 8.34 4 8 C4 7.01 4 6.02 4 5 C3.34 5 2.68 5 2 5 C2 4.34 2 3.68 2 3 C1.34 3 0.68 3 0 3 C-0.12375 3.639375 -0.2475 4.27875 -0.375 4.9375 C-0.58125 5.618125 -0.7875 6.29875 -1 7 C-1.99 7.495 -1.99 7.495 -3 8 C-1.125 1.125 -1.125 1.125 0 0 Z " fill="#1C32CA" transform="translate(99,120)"/>
<path d="M0 0 C1.37302389 4.97721161 0.72346773 8.15274701 -1 13 C-2.32 12.67 -3.64 12.34 -5 12 C-5 12.99 -5 13.98 -5 15 C-5.66 15 -6.32 15 -7 15 C-5.45454854 9.52067211 -2.84456788 4.88570819 0 0 Z " fill="#354CBC" transform="translate(278,74)"/>
<path d="M0 0 C-0.33 0.99 -0.66 1.98 -1 3 C1.475 3.99 1.475 3.99 4 5 C4 5.66 4 6.32 4 7 C5.65 7 7.3 7 9 7 C9 7.66 9 8.32 9 9 C2.80016113 8.67369269 -2.05030481 5.51419037 -7 2 C-7.33 1.34 -7.66 0.68 -8 0 C-4.71023192 -1.09658936 -3.28696233 -0.79953138 0 0 Z " fill="#334DB4" transform="translate(483,134)"/>
<path d="M0 0 C-0.50771472 5.96564796 -2.38592128 10.63809899 -5 16 C-5.33 16 -5.66 16 -6 16 C-6 14.35 -6 12.7 -6 11 C-5.34 11 -4.68 11 -4 11 C-4.226875 9.741875 -4.45375 8.48375 -4.6875 7.1875 C-5.18517097 3.28216529 -5.18517097 3.28216529 -3.6875 1 C-2 0 -2 0 0 0 Z " fill="#1733CD" transform="translate(181,80)"/>
<path d="M0 0 C0 0.33 0 0.66 0 1 C-0.92941406 1.04898437 -1.85882813 1.09796875 -2.81640625 1.1484375 C-9.17323968 1.53289666 -14.96794771 1.94653539 -21 4 C-22.66246041 4.35371498 -24.32774271 4.69595322 -26 5 C-25 3 -25 3 -23.21484375 2.18359375 C-15.17458335 -0.45052243 -8.41023351 -1.35164467 0 0 Z " fill="#2039C1" transform="translate(94,30)"/>
<path d="M0 0 C0 1.32 0 2.64 0 4 C-12.40506329 7.79746835 -12.40506329 7.79746835 -16 6 C-16 5.34 -16 4.68 -16 4 C-15.27167969 4.21527344 -14.54335937 4.43054688 -13.79296875 4.65234375 C-10.36683982 5.07881295 -9.19763094 4.3699929 -6.3125 2.5625 C-2.15803815 0 -2.15803815 0 0 0 Z " fill="#1C31C7" transform="translate(128,125)"/>
<path d="M0 0 C3.26460973 1.80412643 4.88929795 2.83394693 7 6 C7.99 5.34 8.98 4.68 10 4 C10.33 5.32 10.66 6.64 11 8 C9.68 8 8.36 8 7 8 C7 8.66 7 9.32 7 10 C6.34 10 5.68 10 5 10 C4.67 8.68 4.34 7.36 4 6 C3.34 6 2.68 6 2 6 C2 5.01 2 4.02 2 3 C1.34 2.67 0.68 2.34 0 2 C0 1.34 0 0.68 0 0 Z " fill="#1632D8" transform="translate(109,38)"/>
<path d="M0 0 C-3.64116773 3.33773709 -7.28607242 3.97864902 -12 5 C-12 5.66 -12 6.32 -12 7 C-14 8.625 -14 8.625 -16 10 C-16.66 9.67 -17.32 9.34 -18 9 C-6.29391892 -2.09797297 -6.29391892 -2.09797297 0 0 Z " fill="#1A30C4" transform="translate(137,32)"/>
<path d="M0 0 C0.99 0.33 1.98 0.66 3 1 C-2.445 5.455 -2.445 5.455 -8 10 C-8.66 8.68 -9.32 7.36 -10 6 C-8.68 6 -7.36 6 -6 6 C-6 5.34 -6 4.68 -6 4 C-5.34 3.34 -4.68 2.68 -4 2 C-2.68 2 -1.36 2 0 2 C0 1.34 0 0.68 0 0 Z " fill="#1831CA" transform="translate(149,123)"/>
<path d="M0 0 C4.95 0 9.9 0 15 0 C15.66 1.65 16.32 3.3 17 5 C15.68 4.67 14.36 4.34 13 4 C13 3.34 13 2.68 13 2 C8.71 1.67 4.42 1.34 0 1 C0 0.67 0 0.34 0 0 Z " fill="#3548A6" transform="translate(221,55)"/>
<path d="M0 0 C2.97 0 5.94 0 9 0 C9.33 1.32 9.66 2.64 10 4 C11.32 4 12.64 4 14 4 C13.67 5.65 13.34 7.3 13 9 C12.34 8.67 11.68 8.34 11 8 C11 7.34 11 6.68 11 6 C7.41247258 4.13448574 3.72187807 2.57464072 0 1 C0 0.67 0 0.34 0 0 Z " fill="#1934C8" transform="translate(92,44)"/>
<path d="M0 0 C1.32 0.33 2.64 0.66 4 1 C2.86280581 4.41158256 1.95657056 5.11854601 -1 7 C-1.66 7 -2.32 7 -3 7 C-3 7.99 -3 8.98 -3 10 C-3.99 10 -4.98 10 -6 10 C-4.34832443 6.4213696 -2.21713508 3.25179812 0 0 Z " fill="#1831D4" transform="translate(162,91)"/>
<path d="M0 0 C0.66 0 1.32 0 2 0 C2.33 1.32 2.66 2.64 3 4 C2.01 4.66 1.02 5.32 0 6 C-0.80336113 8.87759068 -0.80336113 8.87759068 -1.1875 12.125 C-1.34605469 13.22070312 -1.50460937 14.31640625 -1.66796875 15.4453125 C-1.77753906 16.28835937 -1.88710938 17.13140625 -2 18 C-2.66 17.67 -3.32 17.34 -4 17 C-3.71561048 15.10306139 -3.42216208 13.20747973 -3.125 11.3125 C-2.96257812 10.25675781 -2.80015625 9.20101562 -2.6328125 8.11328125 C-2.04106931 5.20205086 -1.1968194 2.71044393 0 0 Z " fill="#3A4EB1" transform="translate(417,90)"/>
<path d="M0 0 C7 8.75 7 8.75 7 13 C4 12 4 12 2 11 C0.68254143 7.12081644 0 4.11624135 0 0 Z " fill="#3347B6" transform="translate(250,81)"/>
<path d="M0 0 C0.66 0.33 1.32 0.66 2 1 C0.68 5.29 -0.64 9.58 -2 14 C-3.64350079 10.71299843 -4.41321669 8.52069985 -5 5 C-4.34 4.67 -3.68 4.34 -3 4 C-2.34 4.33 -1.68 4.66 -1 5 C-0.67 3.35 -0.34 1.7 0 0 Z " fill="#1834D6" transform="translate(65,54)"/>
<path d="M0 0 C0.99 0.99 1.98 1.98 3 3 C0.94077598 5.05922402 -3.21708124 4.41427579 -6.0625 4.5625 C-7.20041992 4.62727539 -7.20041992 4.62727539 -8.36132812 4.69335938 C-10.24065438 4.79973633 -12.12030244 4.90039934 -14 5 C-11.31907309 2.31907309 -9.60832637 2.61329743 -5.875 2.375 C-4.77929688 2.30023438 -3.68359375 2.22546875 -2.5546875 2.1484375 C-1.71164062 2.09945312 -0.86859375 2.05046875 0 2 C0 1.34 0 0.68 0 0 Z " fill="#344CA5" transform="translate(457,89)"/>
<path d="M0 0 C0.66 0 1.32 0 2 0 C2 0.66 2 1.32 2 2 C2.99 2.33 3.98 2.66 5 3 C7.73814047 5.53778873 9.92595707 7.8889356 12 11 C8.81293058 9.56438314 6.37830895 7.79733671 3.75 5.5 C3.04359375 4.8915625 2.3371875 4.283125 1.609375 3.65625 C0 2 0 2 0 0 Z " fill="#344AAA" transform="translate(367,128)"/>
<path d="M0 0 C0.66 0 1.32 0 2 0 C2.474375 1.11375 2.94875 2.2275 3.4375 3.375 C4.25306463 5.26710994 5.07856355 7.15712709 6 9 C4.35 8.67 2.7 8.34 1 8 C1 7.01 1 6.02 1 5 C0.34 5 -0.32 5 -1 5 C-0.67 3.35 -0.34 1.7 0 0 Z " fill="#364FB8" transform="translate(485,111)"/>
<path d="M0 0 C0.99 0 1.98 0 3 0 C6 5.75 6 5.75 6 8 C7.32 8.33 8.64 8.66 10 9 C8.02 9.99 8.02 9.99 6 11 C4.02 7.37 2.04 3.74 0 0 Z " fill="#1A2DB9" transform="translate(55,93)"/>
<path d="M0 0 C0.99 0 1.98 0 3 0 C3 0.66 3 1.32 3 2 C-0.19641774 4.39731331 -3.00118212 6.38479725 -7 7 C-7 6.01 -7 5.02 -7 4 C-6.030625 3.71125 -5.06125 3.4225 -4.0625 3.125 C-0.89335797 2.35785318 -0.89335797 2.35785318 0 0 Z " fill="#3C4BB1" transform="translate(514,136)"/>
<path d="M0 0 C0.66 0.33 1.32 0.66 2 1 C1.01 2.485 1.01 2.485 0 4 C-0.99 4 -1.98 4 -3 4 C-3.33 5.32 -3.66 6.64 -4 8 C-5.65 8 -7.3 8 -9 8 C-6.14723863 5.06799526 -3.34920216 2.35684596 0 0 Z " fill="#1B39C7" transform="translate(137,117)"/>
<path d="M0 0 C0.99 0.33 1.98 0.66 3 1 C2.19185349 2.33597652 1.37836819 3.668725 0.5625 5 C0.11003906 5.7425 -0.34242188 6.485 -0.80859375 7.25 C-1.20175781 7.8275 -1.59492188 8.405 -2 9 C-2.33 9 -2.66 9 -3 9 C-3 7.35 -3 5.7 -3 4 C-2.01 3.67 -1.02 3.34 0 3 C0 2.01 0 1.02 0 0 Z " fill="#3146B9" transform="translate(277,112)"/>
<path d="M0 0 C0.99 0.33 1.98 0.66 3 1 C5.26415094 6.20754717 5.26415094 6.20754717 4 10 C1.80902348 6.6659053 0.56545837 3.95820859 0 0 Z " fill="#3C51B2" transform="translate(520,134)"/>
<path d="M0 0 C4.42761914 1.39153744 6.9556255 3.52071486 10 7 C10 7.66 10 8.32 10 9 C9.01 9 8.02 9 7 9 C5.95355934 7.36209288 4.9601817 5.68991979 4 4 C2.70420353 2.63015802 1.38007251 1.2848951 0 0 Z " fill="#354EAE" transform="translate(522,76)"/>
<path d="M0 0 C1.65 1.32 3.3 2.64 5 4 C3.35 3.67 1.7 3.34 0 3 C-0.12375 3.639375 -0.2475 4.27875 -0.375 4.9375 C-0.58125 5.618125 -0.7875 6.29875 -1 7 C-1.99 7.495 -1.99 7.495 -3 8 C-1.125 1.125 -1.125 1.125 0 0 Z " fill="#2438C2" transform="translate(99,120)"/>
<path d="M0 0 C1.98 0 3.96 0 6 0 C3.31158141 2.25245881 1.35358125 3.88213958 -2 5 C-2.33 4.01 -2.66 3.02 -3 2 C-2.01 2 -1.02 2 0 2 C0 1.34 0 0.68 0 0 Z " fill="#1830C7" transform="translate(124,139)"/>
<path d="M0 0 C0.66 0.33 1.32 0.66 2 1 C1.00269864 3.4932534 0.34925469 4.77467439 -1.9375 6.25 C-4 7 -4 7 -7 7 C-4.69 4.69 -2.38 2.38 0 0 Z " fill="#384DB1" transform="translate(477,78)"/>
<path d="M0 0 C0.33 0 0.66 0 1 0 C1.309375 1.11375 1.61875 2.2275 1.9375 3.375 C2.82326483 6.7945155 2.82326483 6.7945155 4 9 C2.02 9 0.04 9 -2 9 C-1.34 8.01 -0.68 7.02 0 6 C-0.33 5.01 -0.66 4.02 -1 3 C-0.67 2.01 -0.34 1.02 0 0 Z " fill="#3751AF" transform="translate(382,109)"/>
<path d="M0 0 C0.33 0.99 0.66 1.98 1 3 C1.66 3 2.32 3 3 3 C2.34 4.32 1.68 5.64 1 7 C0.01 7 -0.98 7 -2 7 C-1.125 1.125 -1.125 1.125 0 0 Z " fill="#344BBD" transform="translate(469,87)"/>
<path d="M0 0 C0.8125 1.6875 0.8125 1.6875 1 4 C-1.4375 6.75 -1.4375 6.75 -4 9 C-4 5.00095031 -2.27413033 3.19799578 0 0 Z " fill="#1A2CC8" transform="translate(58,42)"/>
<path d="M0 0 C0.99 0.33 1.98 0.66 3 1 C-0.465 3.97 -0.465 3.97 -4 7 C-4 5.68 -4 4.36 -4 3 C-3.01 3 -2.02 3 -1 3 C-0.67 2.01 -0.34 1.02 0 0 Z " fill="#1931C2" transform="translate(157,116)"/>
<path d="M0 0 C2 3 2 3 2 6 C2.33 6.66 2.66 7.32 3 8 C0.525 7.01 0.525 7.01 -2 6 C-1.125 1.125 -1.125 1.125 0 0 Z " fill="#1A32C4" transform="translate(95,128)"/>
<path d="M0 0 C1.3921875 0.3403125 1.3921875 0.3403125 2.8125 0.6875 C0.8125 2.6875 0.8125 2.6875 -2.8125 2.8125 C-3.92625 2.77125 -5.04 2.73 -6.1875 2.6875 C-4.14987265 -0.14253799 -3.59070275 -0.35202968 0 0 Z " fill="#354FBA" transform="translate(435.1875,75.3125)"/>
<path d="M0 0 C3.57104439 1.87949705 5.54744301 3.17053157 7 7 C5.35 6.67 3.7 6.34 2 6 C2 5.01 2 4.02 2 3 C1.34 2.67 0.68 2.34 0 2 C0 1.34 0 0.68 0 0 Z " fill="#1C33C7" transform="translate(109,38)"/>
</svg>
